<svg aria-hidden="true" style="position: absolute; width: 0; height: 0; overflow: hidden;" version="1.1" xmlns="http://www.w3.org/2000/svg" xmlns:xlink="http://www.w3.org/1999/xlink">
<defs>
<symbol id="icon-Exclude" viewBox="0 0 32 32">
<path fill="#8ad5d0" style="fill: var(--color1, #8ad5d0)" d="M30.959 1.041c0.667 0.667 1.041 1.571 1.041 2.514v24.889c0 1.973-1.6 3.556-3.556 3.556h-24.889c-0.943 0-1.847-0.375-2.514-1.041s-1.041-1.571-1.041-2.514v-24.889c0-0.943 0.375-1.847 1.041-2.514s1.571-1.041 2.514-1.041h24.889c0.943 0 1.847 0.375 2.514 1.041zM23.543 21.259l-5.387-5.387 5.387-5.388v3.233h3.060v-8.448h-8.448v3.060h3.232l-5.387 5.387-5.387-5.387h3.232v-3.060h-8.448v8.448h3.060v-3.233l5.387 5.388-5.387 5.387v-3.233h-3.060v8.448h8.448v-3.060h-3.232l5.387-5.387 5.387 5.387h-3.232v3.060h8.448v-8.448h-3.060v3.233z"></path>
</symbol>
<symbol id="icon-Frame-344" viewBox="0 0 63 32">
<path fill="#fff" style="fill: var(--color2, #fff); stroke: var(--color3, #d9d9d9)" stroke="#d9d9d9" stroke-linejoin="miter" stroke-linecap="butt" stroke-miterlimit="4" stroke-width="0.5517" d="M2.207 0.276h14.897c1.066 0 1.931 0.865 1.931 1.931v8.828c0 1.066-0.865 1.931-1.931 1.931h-14.897c-1.066 0-1.931-0.865-1.931-1.931v-8.828c0-1.066 0.865-1.931 1.931-1.931z"></path>
<path fill="#172b85" style="fill: var(--color4, #172b85)" d="M5.862 8.97h-1.17l-0.877-3.347c-0.042-0.154-0.13-0.29-0.26-0.354-0.325-0.161-0.682-0.29-1.072-0.354v-0.129h1.885c0.26 0 0.455 0.194 0.488 0.418l0.455 2.414 1.169-2.832h1.137l-1.754 4.184zM8.267 8.97h-1.105l0.91-4.184h1.105l-0.91 4.184zM10.606 5.945c0.033-0.225 0.228-0.354 0.455-0.354 0.358-0.032 0.747 0.032 1.072 0.193l0.195-0.901c-0.325-0.129-0.683-0.194-1.007-0.194-1.072 0-1.853 0.58-1.853 1.384 0 0.612 0.553 0.933 0.943 1.127 0.422 0.193 0.585 0.322 0.552 0.515 0 0.29-0.325 0.418-0.65 0.418-0.39 0-0.78-0.097-1.137-0.258l-0.195 0.901c0.39 0.161 0.812 0.225 1.202 0.225 1.202 0.032 1.95-0.547 1.95-1.416 0-1.094-1.527-1.159-1.527-1.641zM16 8.97l-0.877-4.184h-0.942c-0.195 0-0.39 0.129-0.455 0.322l-1.624 3.862h1.137l0.227-0.611h1.397l0.13 0.611h1.007zM14.343 5.913l0.325 1.577h-0.91l0.585-1.577z"></path>
<path fill="#fff" style="fill: var(--color2, #fff); stroke: var(--color3, #d9d9d9)" stroke="#d9d9d9" stroke-linejoin="miter" stroke-linecap="butt" stroke-miterlimit="4" stroke-width="0.5517" d="M24.276 0.276h14.897c1.066 0 1.931 0.865 1.931 1.931v8.828c0 1.066-0.865 1.931-1.931 1.931h-14.897c-1.066 0-1.931-0.865-1.931-1.931v-8.828c0-1.066 0.865-1.931 1.931-1.931z"></path>
<path fill="#ed0006" style="fill: var(--color5, #ed0006)" d="M31.862 9.466c-0.657 0.567-1.51 0.91-2.442 0.91-2.079 0-3.765-1.705-3.765-3.809s1.686-3.809 3.765-3.809c0.932 0 1.785 0.342 2.442 0.91 0.657-0.567 1.51-0.91 2.442-0.91 2.079 0 3.765 1.705 3.765 3.809s-1.686 3.809-3.765 3.809c-0.932 0-1.785-0.342-2.442-0.91z"></path>
<path fill="#f9a000" style="fill: var(--color6, #f9a000)" d="M31.862 9.466c0.809-0.699 1.323-1.738 1.323-2.899s-0.513-2.2-1.323-2.899c0.657-0.567 1.51-0.91 2.442-0.91 2.079 0 3.765 1.705 3.765 3.809s-1.686 3.809-3.765 3.809c-0.932 0-1.785-0.342-2.442-0.91z"></path>
<path fill="#ff5e00" style="fill: var(--color7, #ff5e00)" d="M31.862 3.668c0.809 0.699 1.323 1.738 1.323 2.899s-0.513 2.2-1.323 2.899c-0.809-0.699-1.323-1.738-1.323-2.899s0.513-2.2 1.323-2.899z"></path>
<path fill="#fff" style="fill: var(--color2, #fff); stroke: var(--color3, #d9d9d9)" stroke="#d9d9d9" stroke-linejoin="miter" stroke-linecap="butt" stroke-miterlimit="4" stroke-width="0.5517" d="M46.345 0.276h14.897c1.066 0 1.931 0.865 1.931 1.931v8.828c0 1.066-0.865 1.931-1.931 1.931h-14.897c-1.066 0-1.931-0.865-1.931-1.931v-8.828c0-1.066 0.865-1.931 1.931-1.931z"></path>
<path fill="#253b80" style="fill: var(--color8, #253b80)" d="M49.6 8.409h-0.858c-0.059 0-0.109 0.043-0.118 0.101l-0.347 2.201c-0.007 0.043 0.027 0.083 0.071 0.083h0.41c0.059 0 0.109-0.043 0.118-0.101l0.094-0.594c0.009-0.058 0.059-0.101 0.118-0.101h0.272c0.565 0 0.892-0.274 0.977-0.816 0.038-0.237 0.002-0.424-0.109-0.554-0.122-0.143-0.338-0.219-0.626-0.219zM49.699 9.213c-0.047 0.308-0.282 0.308-0.51 0.308h-0.13l0.091-0.575c0.005-0.035 0.035-0.060 0.071-0.060h0.059c0.155 0 0.301 0 0.377 0.088 0.045 0.053 0.059 0.131 0.042 0.239zM52.166 9.203h-0.411c-0.035 0-0.065 0.026-0.071 0.060l-0.018 0.115-0.029-0.042c-0.089-0.129-0.287-0.172-0.485-0.172-0.454 0-0.842 0.344-0.918 0.827-0.039 0.241 0.017 0.471 0.153 0.631 0.125 0.148 0.304 0.209 0.518 0.209 0.366 0 0.569-0.235 0.569-0.235l-0.018 0.114c-0.007 0.044 0.027 0.083 0.071 0.083h0.37c0.059 0 0.109-0.043 0.118-0.101l0.222-1.407c0.007-0.043-0.026-0.083-0.070-0.083zM51.593 10.003c-0.040 0.235-0.226 0.392-0.464 0.392-0.119 0-0.215-0.038-0.276-0.111s-0.084-0.175-0.065-0.289c0.037-0.233 0.227-0.396 0.461-0.396 0.117 0 0.212 0.039 0.274 0.112s0.087 0.177 0.070 0.291zM53.942 9.203h0.413c0.058 0 0.092 0.065 0.059 0.112l-1.374 1.983c-0.022 0.032-0.059 0.051-0.098 0.051h-0.412c-0.058 0-0.092-0.065-0.058-0.113l0.428-0.604-0.455-1.335c-0.016-0.046 0.019-0.095 0.068-0.095h0.406c0.053 0 0.099 0.035 0.114 0.085l0.241 0.806 0.57-0.839c0.022-0.033 0.059-0.052 0.099-0.052z"></path>
<path fill="#179bd7" style="fill: var(--color9, #179bd7)" d="M58.419 10.71l0.353-2.241c0.006-0.035 0.035-0.060 0.071-0.061h0.396c0.044 0 0.078 0.039 0.071 0.083l-0.347 2.201c-0.009 0.058-0.059 0.101-0.118 0.101h-0.354c-0.044 0-0.077-0.039-0.071-0.083zM55.722 8.409h-0.858c-0.059 0-0.109 0.043-0.118 0.101l-0.347 2.201c-0.007 0.043 0.027 0.083 0.071 0.083h0.44c0.041 0 0.076-0.030 0.082-0.070l0.098-0.624c0.009-0.058 0.059-0.101 0.118-0.101h0.271c0.566 0 0.892-0.274 0.977-0.816 0.039-0.237 0.002-0.424-0.11-0.554-0.121-0.143-0.338-0.219-0.625-0.219zM55.821 9.213c-0.046 0.308-0.282 0.308-0.51 0.308h-0.129l0.091-0.575c0.006-0.035 0.035-0.060 0.071-0.060h0.059c0.155 0 0.301 0 0.377 0.088 0.045 0.053 0.059 0.131 0.041 0.239zM58.287 9.203h-0.411c-0.035 0-0.065 0.026-0.071 0.060l-0.018 0.115-0.029-0.042c-0.089-0.129-0.287-0.172-0.485-0.172-0.455 0-0.842 0.344-0.918 0.827-0.039 0.241 0.017 0.471 0.153 0.631 0.125 0.148 0.305 0.209 0.518 0.209 0.366 0 0.569-0.235 0.569-0.235l-0.018 0.114c-0.007 0.044 0.026 0.083 0.071 0.083h0.37c0.058 0 0.109-0.043 0.118-0.101l0.222-1.407c0.007-0.043-0.026-0.083-0.071-0.083zM57.714 10.003c-0.039 0.235-0.226 0.392-0.463 0.392-0.119 0-0.215-0.038-0.276-0.111s-0.084-0.175-0.065-0.289c0.037-0.233 0.226-0.396 0.461-0.396 0.116 0 0.211 0.039 0.274 0.112s0.088 0.177 0.070 0.291z"></path>
<path fill="#253b80" style="fill: var(--color8, #253b80)" d="M52.776 7.621l0.106-0.67-0.235-0.005h-1.122l0.78-4.946c0.002-0.015 0.010-0.029 0.022-0.039s0.026-0.015 0.042-0.015h1.892c0.628 0 1.062 0.131 1.288 0.389 0.106 0.121 0.173 0.248 0.206 0.387 0.034 0.146 0.035 0.321 0.001 0.533l-0.002 0.016v0.136l0.106 0.060c0.089 0.047 0.161 0.102 0.215 0.164 0.090 0.103 0.15 0.235 0.174 0.391 0.025 0.16 0.017 0.351-0.025 0.567-0.049 0.249-0.127 0.465-0.233 0.642-0.097 0.163-0.221 0.299-0.368 0.404-0.141 0.1-0.307 0.175-0.496 0.224-0.183 0.048-0.391 0.072-0.62 0.072h-0.147c-0.105 0-0.208 0.038-0.288 0.106-0.081 0.069-0.134 0.164-0.15 0.268l-0.011 0.060-0.186 1.181-0.008 0.043c-0.002 0.014-0.006 0.021-0.012 0.025s-0.012 0.007-0.019 0.007h-0.909z"></path>
<path fill="#179bd7" style="fill: var(--color9, #179bd7)" d="M55.96 3.287c-0.006 0.036-0.012 0.073-0.019 0.111-0.249 1.281-1.103 1.724-2.194 1.724h-0.555c-0.133 0-0.246 0.097-0.266 0.228l-0.284 1.803-0.081 0.511c-0.014 0.086 0.053 0.164 0.14 0.164h0.985c0.117 0 0.216-0.085 0.234-0.2l0.010-0.050 0.185-1.177 0.012-0.064c0.018-0.115 0.117-0.2 0.234-0.2h0.147c0.954 0 1.701-0.387 1.919-1.508 0.092-0.468 0.044-0.859-0.197-1.134-0.073-0.083-0.164-0.152-0.27-0.208z"></path>
<path fill="#222d65" style="fill: var(--color10, #222d65)" d="M55.699 3.182c-0.038-0.011-0.077-0.021-0.118-0.030s-0.082-0.017-0.125-0.024c-0.15-0.024-0.314-0.036-0.489-0.036h-1.483c-0.037 0-0.071 0.008-0.102 0.023-0.068 0.033-0.119 0.098-0.132 0.177l-0.316 1.999-0.009 0.058c0.021-0.132 0.133-0.228 0.267-0.228h0.555c1.090 0 1.944-0.443 2.194-1.724 0.008-0.038 0.014-0.075 0.019-0.111-0.063-0.034-0.131-0.062-0.205-0.087-0.018-0.006-0.037-0.012-0.056-0.018z"></path>
<path fill="#253b80" style="fill: var(--color8, #253b80)" d="M53.25 3.293c0.012-0.079 0.063-0.144 0.132-0.177 0.031-0.015 0.066-0.023 0.102-0.023h1.483c0.176 0 0.34 0.011 0.489 0.036 0.043 0.007 0.084 0.015 0.125 0.024s0.080 0.019 0.118 0.030c0.019 0.006 0.038 0.011 0.056 0.017 0.073 0.024 0.142 0.053 0.205 0.087 0.074-0.474-0.001-0.796-0.257-1.088-0.282-0.321-0.791-0.459-1.443-0.459h-1.892c-0.133 0-0.247 0.097-0.267 0.229l-0.788 4.996c-0.016 0.099 0.061 0.188 0.16 0.188h1.168l0.293-1.861 0.316-1.999z"></path>
<path fill="#fff" style="fill: var(--color2, #fff); stroke: var(--color3, #d9d9d9)" stroke="#d9d9d9" stroke-linejoin="miter" stroke-linecap="butt" stroke-miterlimit="4" stroke-width="0.5517" d="M2.207 19.034h14.897c1.066 0 1.931 0.865 1.931 1.931v8.828c0 1.066-0.865 1.931-1.931 1.931h-14.897c-1.066 0-1.931-0.865-1.931-1.931v-8.828c0-1.066 0.865-1.931 1.931-1.931z"></path>
<path fill="#f7931a" style="fill: var(--color11, #f7931a)" d="M14.139 25.415c0-2.457-1.992-4.449-4.449-4.449s-4.449 1.992-4.449 4.449c0 2.457 1.992 4.449 4.449 4.449s4.449-1.992 4.449-4.449zM10.759 23.762c0.619 0.213 1.072 0.531 0.983 1.123-0.065 0.434-0.306 0.643-0.626 0.717 0.44 0.228 0.59 0.661 0.451 1.185-0.264 0.753-0.893 0.817-1.729 0.659l-0.203 0.81-0.49-0.122 0.2-0.799c-0.127-0.031-0.257-0.065-0.391-0.101l-0.201 0.803-0.49-0.122 0.203-0.812-0.987-0.248 0.244-0.559c0 0 0.361 0.095 0.356 0.088 0.139 0.034 0.201-0.056 0.225-0.116l0.55-2.198c0.006-0.104-0.030-0.235-0.228-0.284 0.008-0.005-0.356-0.088-0.356-0.088l0.13-0.522 0.989 0.244 0.201-0.802 0.49 0.122-0.197 0.786c0.132 0.030 0.264 0.060 0.393 0.092l0.196-0.781 0.49 0.122-0.201 0.803zM9.586 25.1c0.334 0.088 1.060 0.281 1.187-0.224 0.129-0.517-0.577-0.673-0.922-0.749v0c-0.039-0.009-0.074-0.016-0.102-0.023l-0.244 0.975c0.023 0.006 0.051 0.013 0.081 0.021zM9.208 26.671c0.4 0.105 1.275 0.336 1.414-0.221 0.142-0.569-0.706-0.759-1.119-0.851-0.046-0.010-0.087-0.019-0.12-0.028l-0.269 1.075c0.027 0.007 0.059 0.015 0.095 0.025l0 0z"></path>
<path fill="#fff" style="fill: var(--color2, #fff); stroke: var(--color3, #d9d9d9)" stroke="#d9d9d9" stroke-linejoin="miter" stroke-linecap="butt" stroke-miterlimit="4" stroke-width="0.5517" d="M24.276 19.034h14.897c1.066 0 1.931 0.865 1.931 1.931v8.828c0 1.066-0.865 1.931-1.931 1.931h-14.897c-1.066 0-1.931-0.865-1.931-1.931v-8.828c0-1.066 0.865-1.931 1.931-1.931z"></path>
<path fill="#6481e7" style="fill: var(--color12, #6481e7)" d="M36.066 25.343c0 2.418-1.96 4.378-4.378 4.378s-4.378-1.96-4.378-4.378c0-2.418 1.96-4.378 4.378-4.378s4.378 1.96 4.378 4.378z"></path>
<path fill="#c1ccf5" style="fill: var(--color13, #c1ccf5)" d="M31.74 22.263v4.419l1.964-1.161-1.964-3.258z"></path>
<path fill="#fff" style="fill: var(--color2, #fff)" d="M29.776 25.522l1.964 1.161v-4.419l-1.964 3.258z"></path>
<path fill="#8299ec" style="fill: var(--color14, #8299ec)" d="M31.74 24.629l-1.964 0.893 1.964 1.161 1.964-1.161-1.964-0.893z"></path>
<path fill="#c1ccf5" style="fill: var(--color13, #c1ccf5)" d="M31.74 24.629l-1.964 0.893 1.964 1.161 0-2.053z"></path>
<path fill="#c1ccf5" style="fill: var(--color13, #c1ccf5)" d="M31.74 27.054v1.607l1.965-2.768-1.965 1.16z"></path>
<path fill="#fff" style="fill: var(--color2, #fff)" d="M29.776 25.894l1.964 2.767v-1.607l-1.964-1.16z"></path>
<path fill="#fff" style="fill: var(--color2, #fff); stroke: var(--color3, #d9d9d9)" stroke="#d9d9d9" stroke-linejoin="miter" stroke-linecap="butt" stroke-miterlimit="4" stroke-width="0.5517" d="M46.345 19.034h14.897c1.066 0 1.931 0.865 1.931 1.931v8.828c0 1.066-0.865 1.931-1.931 1.931h-14.897c-1.066 0-1.931-0.865-1.931-1.931v-8.828c0-1.066 0.865-1.931 1.931-1.931z"></path>
<path fill="#e21836" style="fill: var(--color15, #e21836)" d="M50.112 21.518h3.043c0.425 0 0.689 0.346 0.59 0.772l-1.417 6.083c-0.1 0.425-0.525 0.771-0.95 0.771h-3.043c-0.424 0-0.689-0.347-0.59-0.771l1.417-6.083c0.099-0.426 0.524-0.772 0.95-0.772z"></path>
<path fill="#00447c" style="fill: var(--color16, #00447c)" d="M52.902 21.517h3.499c0.425 0 0.233 0.346 0.134 0.772l-1.417 6.083c-0.099 0.425-0.068 0.771-0.494 0.771h-3.5c-0.426 0-0.689-0.347-0.589-0.771l1.416-6.083c0.101-0.426 0.525-0.772 0.95-0.772z"></path>
<path fill="#007b84" style="fill: var(--color17, #007b84)" d="M56.263 21.517h3.043c0.425 0 0.69 0.346 0.589 0.772l-1.416 6.083c-0.1 0.425-0.526 0.771-0.951 0.771h-3.042c-0.426 0-0.69-0.347-0.59-0.771l1.417-6.083c0.099-0.426 0.524-0.772 0.95-0.772z"></path>
<path fill="#fefefe" style="fill: var(--color18, #fefefe)" d="M50.906 23.467c-0.313 0.003-0.405 0-0.435-0.007-0.011 0.054-0.222 1.028-0.223 1.029-0.045 0.197-0.079 0.338-0.191 0.428-0.064 0.053-0.138 0.078-0.225 0.078-0.139 0-0.22-0.069-0.233-0.2l-0.003-0.045c0 0 0.042-0.264 0.042-0.265 0 0 0.222-0.888 0.261-1.005 0.002-0.007 0.003-0.010 0.003-0.013-0.431 0.004-0.508 0-0.513-0.007-0.003 0.010-0.014 0.065-0.014 0.065l-0.226 1.001-0.019 0.085-0.038 0.278c0 0.082 0.016 0.15 0.048 0.206 0.103 0.18 0.397 0.207 0.564 0.207 0.214 0 0.415-0.046 0.551-0.129 0.236-0.139 0.298-0.357 0.353-0.551l0.026-0.099c0 0 0.228-0.922 0.267-1.042 0.002-0.007 0.002-0.010 0.004-0.013zM51.683 24.21c-0.055 0-0.156 0.013-0.246 0.058-0.033 0.017-0.064 0.036-0.096 0.056l0.030-0.107-0.016-0.018c-0.192 0.039-0.234 0.044-0.411 0.069l-0.015 0.010c-0.021 0.17-0.039 0.298-0.115 0.633-0.029 0.123-0.059 0.248-0.089 0.371l0.008 0.016c0.181-0.010 0.236-0.010 0.394-0.007l0.013-0.014c0.020-0.103 0.023-0.127 0.067-0.334 0.021-0.098 0.064-0.315 0.086-0.392 0.039-0.018 0.078-0.036 0.115-0.036 0.088 0 0.078 0.077 0.074 0.108-0.004 0.052-0.036 0.22-0.069 0.365l-0.022 0.093c-0.015 0.069-0.032 0.136-0.048 0.204l0.007 0.014c0.179-0.010 0.233-0.010 0.386-0.007l0.018-0.014c0.028-0.16 0.036-0.203 0.085-0.436l0.025-0.107c0.048-0.21 0.072-0.316 0.036-0.403-0.038-0.097-0.13-0.121-0.214-0.121zM52.551 24.43c-0.095 0.018-0.156 0.030-0.216 0.038-0.060 0.010-0.118 0.018-0.21 0.031l-0.007 0.007-0.007 0.005c-0.010 0.068-0.016 0.128-0.029 0.197-0.011 0.072-0.027 0.154-0.054 0.271-0.021 0.090-0.032 0.121-0.043 0.153s-0.024 0.062-0.048 0.151l0.006 0.008 0.005 0.007c0.086-0.004 0.142-0.007 0.2-0.007 0.058-0.002 0.117 0 0.21 0l0.008-0.007 0.009-0.007c0.013-0.080 0.015-0.101 0.023-0.14 0.008-0.042 0.022-0.099 0.056-0.254 0.016-0.072 0.034-0.145 0.051-0.218s0.036-0.146 0.053-0.218l-0.003-0.009-0.003-0.008zM52.553 24.134c-0.086-0.051-0.238-0.035-0.34 0.036-0.102 0.069-0.113 0.167-0.027 0.218 0.085 0.050 0.237 0.035 0.338-0.036s0.114-0.167 0.029-0.218zM53.075 25.314c0.175 0 0.354-0.048 0.489-0.191 0.104-0.116 0.151-0.288 0.168-0.359 0.054-0.235 0.012-0.345-0.041-0.412-0.080-0.102-0.22-0.135-0.366-0.135-0.088 0-0.297 0.009-0.46 0.159-0.117 0.109-0.172 0.256-0.204 0.398-0.033 0.144-0.071 0.403 0.167 0.5 0.074 0.032 0.18 0.040 0.248 0.040zM53.062 24.785c0.040-0.178 0.088-0.328 0.209-0.328 0.095 0 0.102 0.111 0.060 0.29-0.008 0.040-0.042 0.187-0.089 0.25-0.033 0.046-0.072 0.074-0.114 0.074-0.013 0-0.089 0-0.090-0.113-0.001-0.056 0.011-0.112 0.025-0.174zM54.168 25.291l0.014-0.014c0.019-0.103 0.023-0.127 0.065-0.334 0.021-0.099 0.066-0.315 0.087-0.392 0.039-0.018 0.078-0.036 0.116-0.036 0.088 0 0.077 0.077 0.074 0.108-0.003 0.052-0.035 0.22-0.069 0.365l-0.021 0.093c-0.016 0.069-0.033 0.136-0.049 0.204l0.007 0.014c0.179-0.010 0.232-0.010 0.385-0.007l0.019-0.014c0.027-0.16 0.034-0.203 0.085-0.436l0.024-0.107c0.048-0.21 0.072-0.316 0.037-0.403-0.039-0.097-0.132-0.121-0.215-0.121-0.055 0-0.156 0.013-0.246 0.058-0.032 0.017-0.064 0.036-0.096 0.056l0.028-0.107-0.015-0.018c-0.191 0.039-0.235 0.044-0.412 0.069l-0.014 0.010c-0.021 0.17-0.039 0.298-0.115 0.633-0.029 0.123-0.059 0.248-0.089 0.371l0.008 0.016c0.182-0.010 0.236-0.010 0.393-0.007zM55.486 25.298c0.012-0.055 0.078-0.381 0.079-0.381s0.057-0.239 0.061-0.248c0 0 0.018-0.025 0.036-0.035h0.026c0.249 0 0.53 0 0.751-0.162 0.15-0.111 0.253-0.276 0.298-0.475 0.012-0.049 0.020-0.107 0.020-0.165 0-0.076-0.015-0.152-0.060-0.211-0.113-0.157-0.337-0.16-0.595-0.161-0.001 0-0.127 0.001-0.127 0.001-0.331 0.004-0.463 0.003-0.518-0.004-0.005 0.024-0.013 0.067-0.013 0.067s-0.119 0.549-0.119 0.55c0 0-0.284 1.168-0.297 1.223 0.289-0.003 0.407-0.003 0.457 0.002zM55.705 24.322c0 0 0.126-0.548 0.126-0.546l0.004-0.028 0.002-0.021 0.051 0.005c0 0 0.26 0.022 0.266 0.023 0.103 0.040 0.145 0.142 0.115 0.275-0.027 0.122-0.106 0.225-0.208 0.274-0.084 0.042-0.186 0.045-0.292 0.045h-0.068l0.005-0.028zM56.49 24.795c-0.034 0.142-0.072 0.401 0.166 0.494 0.076 0.032 0.143 0.042 0.212 0.038 0.073-0.004 0.14-0.040 0.202-0.093-0.006 0.022-0.011 0.043-0.017 0.065l0.011 0.014c0.17-0.007 0.223-0.007 0.408-0.006l0.017-0.013c0.027-0.159 0.052-0.313 0.122-0.617 0.034-0.145 0.068-0.29 0.103-0.434l-0.005-0.016c-0.191 0.035-0.242 0.043-0.426 0.069l-0.014 0.011c-0.002 0.015-0.004 0.029-0.006 0.043-0.029-0.046-0.070-0.086-0.134-0.11-0.082-0.032-0.273 0.009-0.438 0.159-0.116 0.107-0.172 0.254-0.203 0.395zM56.891 24.804c0.041-0.175 0.088-0.323 0.21-0.323 0.077 0 0.118 0.071 0.109 0.192-0.007 0.030-0.014 0.062-0.022 0.098-0.012 0.052-0.025 0.104-0.038 0.155-0.013 0.035-0.028 0.069-0.045 0.091-0.031 0.044-0.105 0.072-0.148 0.072-0.012 0-0.087 0-0.090-0.111-0.001-0.055 0.011-0.112 0.025-0.174zM58.985 24.226l-0.015-0.017c-0.189 0.038-0.223 0.044-0.397 0.068l-0.013 0.013c-0.001 0.002-0.001 0.005-0.002 0.008l-0.001-0.003c-0.129 0.298-0.125 0.234-0.231 0.468-0.001-0.011-0.001-0.017-0.001-0.029l-0.026-0.509-0.017-0.017c-0.198 0.038-0.202 0.044-0.385 0.068l-0.014 0.013c-0.002 0.006-0.002 0.013-0.003 0.020l0.001 0.003c0.023 0.117 0.018 0.091 0.040 0.275 0.011 0.090 0.025 0.181 0.036 0.271 0.018 0.149 0.028 0.223 0.050 0.451-0.124 0.204-0.153 0.281-0.271 0.459l0.001 0.002-0.083 0.132c-0.010 0.014-0.018 0.023-0.030 0.028-0.014 0.007-0.031 0.008-0.055 0.008h-0.046l-0.069 0.229 0.237 0.004c0.138-0.001 0.226-0.066 0.273-0.153l0.149-0.255h-0.002l0.015-0.018c0.1-0.215 0.861-1.52 0.861-1.52zM56.49 27.236h-0.1l0.371-1.228h0.123l0.039-0.126 0.003 0.141c-0.004 0.087 0.064 0.164 0.244 0.151h0.207l0.072-0.236h-0.078c-0.045 0-0.066-0.011-0.063-0.036l-0.004-0.143h-0.385v0.001c-0.124 0.003-0.495 0.012-0.571 0.032-0.091 0.023-0.187 0.092-0.187 0.092l0.038-0.127h-0.36l-0.074 0.251-0.376 1.246h-0.073l-0.072 0.235h0.717l-0.024 0.078h0.354l0.023-0.078h0.099l0.078-0.253zM56.196 26.258c-0.057 0.016-0.164 0.064-0.164 0.064l0.095-0.314h0.286l-0.069 0.229c0 0-0.088 0.005-0.148 0.021zM56.201 26.706c0 0-0.089 0.011-0.149 0.025-0.058 0.018-0.167 0.073-0.167 0.073l0.099-0.326h0.287l-0.070 0.229zM56.041 27.239h-0.287l0.083-0.276h0.286l-0.082 0.276zM56.732 26.477h0.413l-0.059 0.192h-0.419l-0.063 0.21h0.367l-0.278 0.391c-0.019 0.029-0.037 0.039-0.056 0.047-0.019 0.010-0.045 0.021-0.074 0.021h-0.102l-0.070 0.23h0.266c0.138 0 0.22-0.063 0.28-0.145l0.19-0.261 0.041 0.265c0.009 0.050 0.044 0.079 0.068 0.090 0.026 0.013 0.054 0.036 0.093 0.040 0.041 0.002 0.072 0.003 0.092 0.003h0.131l0.078-0.258h-0.051c-0.030 0-0.081-0.005-0.089-0.014-0.009-0.011-0.009-0.029-0.013-0.055l-0.041-0.265h-0.17l0.074-0.089h0.418l0.064-0.21h-0.387l0.060-0.192h0.386l0.072-0.237h-1.15l-0.071 0.237zM53.24 27.293l0.096-0.321h0.397l0.072-0.239h-0.397l0.061-0.198h0.388l0.072-0.231h-0.971l-0.070 0.231h0.221l-0.059 0.198h-0.221l-0.073 0.243h0.22l-0.129 0.425c-0.017 0.056 0.008 0.078 0.024 0.104s0.033 0.042 0.071 0.052c0.039 0.009 0.066 0.014 0.102 0.014h0.447l0.080-0.265-0.198 0.027c-0.038 0-0.144-0.005-0.133-0.040zM53.286 25.756l-0.101 0.182c-0.022 0.040-0.041 0.064-0.058 0.076-0.015 0.010-0.046 0.014-0.090 0.014h-0.052l-0.070 0.232h0.174c0.084 0 0.148-0.031 0.179-0.046 0.033-0.018 0.042-0.008 0.067-0.032l0.059-0.051h0.544l0.072-0.242h-0.398l0.070-0.132h-0.395zM54.089 27.297c-0.009-0.013-0.003-0.037 0.012-0.086l0.149-0.492h0.529c0.077-0.001 0.133-0.002 0.169-0.005 0.039-0.004 0.081-0.018 0.127-0.043 0.047-0.026 0.072-0.054 0.092-0.085 0.023-0.032 0.060-0.101 0.091-0.207l0.187-0.623-0.549 0.003c0 0-0.169 0.025-0.243 0.052-0.075 0.031-0.182 0.116-0.182 0.116l0.050-0.171h-0.339l-0.475 1.574c-0.017 0.061-0.028 0.105-0.031 0.132-0.001 0.029 0.036 0.057 0.060 0.079 0.028 0.021 0.070 0.018 0.111 0.021 0.042 0.003 0.103 0.005 0.186 0.005h0.26l0.080-0.27-0.233 0.022c-0.025 0-0.043-0.013-0.050-0.025zM54.345 26.387h0.555l-0.035 0.111c-0.005 0.003-0.017-0.005-0.073 0.001h-0.481l0.034-0.112zM54.456 26.016h0.56l-0.040 0.133c0 0-0.264-0.003-0.306 0.005-0.186 0.032-0.295 0.132-0.295 0.132l0.081-0.27zM54.877 26.868c-0.005 0.017-0.012 0.027-0.022 0.034-0.011 0.007-0.030 0.010-0.057 0.010h-0.079l0.005-0.135h-0.329l-0.013 0.659c-0.001 0.047 0.004 0.075 0.039 0.097 0.035 0.027 0.142 0.031 0.286 0.031h0.206l0.074-0.247-0.239 0.013c-0.008-0.003-0.016-0.007-0.025-0.015-0.008-0.008-0.020-0.003-0.018-0.050l0.001-0.169 0.188-0.008c0.102 0 0.145-0.033 0.182-0.065 0.035-0.030 0.047-0.065 0.060-0.112l0.032-0.15h-0.259l-0.033 0.105z"></path>
</symbol>
<symbol id="icon-reshot-icon-skype-UDZRQ54GST-1-2" viewBox="0 0 32 32">
<path fill="#3aa1e0" style="fill: var(--color19, #3aa1e0)" d="M23 19.75c0 2.899-3.135 5.25-7 5.25-3.653 0-6.64-2.102-6.959-4.781-0.005-0.023-0.007-0.048-0.011-0.070-0.001-0.014-0.005-0.029-0.006-0.044h0.002c-0.004-0.035-0.011-0.069-0.011-0.105 0-0.552 0.447-1 1-1 0.542 0 0.981 0.432 0.996 0.97l0.005-0.001c0.174 1.693 2.335 3.031 4.982 3.031 2.761 0 5-1.454 5-3.25s-2.786-2.813-5.5-3.469c-0.091-0.022-0.178-0.032-0.267-0.047-2.961-0.662-6.234-2.154-6.234-4.983 0-2.899 2.91-5.25 6.501-5.25 3.394 0 6.168 2.105 6.459 4.787 0.006 0.025 0.008 0.052 0.011 0.078 0.003 0.024 0.007 0.049 0.010 0.074h-0.003c0.002 0.021 0.007 0.040 0.007 0.062 0 0.553-0.448 1-1 1-0.531 0-0.961-0.416-0.994-0.938h-0.004c-0.136-1.707-2.090-3.062-4.487-3.062-2.486 0-4.5 1.454-4.5 3.25 0 1.451 2.316 2.485 4.5 2.986v-0.001c3.693 0.781 7.499 2.288 7.499 5.516zM29.5 20c-0.552 0-1-0.448-1-1s0.448-1 1-1c0.552 0 1 0.448 1 1s-0.448 1-1 1zM24 32c-1.401 0-2.715-0.367-3.861-1.001-0.026-0.011-0.050-0.015-0.076-0.031-0.287-0.159-0.618-0.25-0.969-0.25-0.128 0-0.252 0.012-0.374 0.035-0.13 0.024-0.252 0.038-0.371 0.046-0.765 0.126-1.548 0.2-2.349 0.2-8.284 0-15-6.715-15-15 0-0.802 0.073-1.583 0.2-2.349 0.008-0.118 0.022-0.241 0.046-0.371 0.023-0.121 0.035-0.246 0.035-0.373 0-0.351-0.091-0.682-0.25-0.97-0.014-0.027-0.020-0.051-0.031-0.076-0.633-1.146-1-2.46-1-3.861 0-4.418 3.582-8 8-8 1.402 0 2.716 0.367 3.861 1.001 0.026 0.011 0.050 0.016 0.076 0.030 0.287 0.159 0.618 0.25 0.97 0.25 0.127 0 0.252-0.012 0.373-0.035 0.13-0.024 0.252-0.038 0.37-0.046 0.767-0.127 1.548-0.201 2.35-0.201 7.875 0 14.311 6.075 14.928 13.791 0.069 0.322-0.004 0.666-0.252 0.915-0.392 0.392-1.024 0.392-1.415 0-0.178-0.177-0.264-0.407-0.28-0.639l-0.029 0.001c-0.479-6.743-6.087-12.069-12.952-12.069-0.72 0-1.425 0.063-2.113 0.176-0.066 0.009-0.129 0.014-0.197 0.029-0.254 0.050-0.516 0.076-0.784 0.076-0.714 0-1.385-0.187-1.965-0.515-0.080-0.045-0.153-0.080-0.22-0.109-0.816-0.42-1.741-0.657-2.721-0.657-3.314 0-6 2.686-6 6 0 0.98 0.237 1.905 0.657 2.721 0.029 0.068 0.064 0.14 0.109 0.22 0.329 0.581 0.515 1.251 0.515 1.965 0 0.268-0.027 0.531-0.076 0.784-0.014 0.068-0.021 0.131-0.030 0.195-0.112 0.689-0.175 1.395-0.175 2.114 0 7.179 5.82 13 13 13 0.72 0 1.426-0.063 2.114-0.176 0.064-0.009 0.128-0.015 0.196-0.030 0.253-0.050 0.516-0.076 0.784-0.076 0.714 0 1.384 0.186 1.965 0.515 0.080 0.045 0.153 0.080 0.22 0.109 0.816 0.42 1.74 0.658 2.721 0.658 3.314 0 6-2.686 6-6 0-0.552 0.448-1 1-1s1 0.448 1 1c0 4.418-3.582 8-8 8z"></path>
</symbol>
<symbol id="icon-sunetix" viewBox="0 0 146 32">
<path d="M122.108 29.678h-10.108l10.491-14.764-9.505-13.45h10.108l5.177 7.642 5.177-7.642h10.108l-9.505 13.45 10.491 14.764h-10.108l-6.163-8.93-6.163 8.93z"></path>
<path d="M83.251 29.678h-10.108l10.491-14.764-9.505-13.45h10.108l5.177 7.642 5.177-7.642h10.108l-9.505 13.45 10.491 14.764h-10.108l-6.163-8.93-6.163 8.93z"></path>
<path d="M44.393 29.678h-10.108l10.491-14.764-9.505-13.45h10.108l5.177 7.642 5.177-7.642h10.108l-9.505 13.45 10.491 14.764h-10.108l-6.163-8.93-6.163 8.93z"></path>
<path d="M22.16 9.353c-0.584-0.256-1.224-0.493-1.917-0.712-0.676-0.219-1.388-0.411-2.137-0.575-0.73-0.164-1.479-0.292-2.246-0.383s-1.516-0.137-2.246-0.137c-1.077 0-1.927 0.164-2.547 0.493-0.603 0.31-0.904 0.803-0.904 1.479 0 0.365 0.11 0.676 0.329 0.931 0.237 0.237 0.557 0.457 0.959 0.657 0.402 0.183 0.867 0.347 1.397 0.493 0.548 0.128 1.141 0.246 1.78 0.356 1.881 0.365 3.579 0.794 5.095 1.287 1.534 0.493 2.831 1.114 3.89 1.863 1.078 0.73 1.899 1.625 2.465 2.684 0.584 1.041 0.877 2.301 0.877 3.78 0 1.644-0.374 3.032-1.123 4.164-0.73 1.132-1.717 2.054-2.958 2.767-1.224 0.694-2.639 1.196-4.246 1.506-1.607 0.329-3.278 0.493-5.013 0.493-1.224 0-2.456-0.064-3.698-0.192-1.242-0.11-2.447-0.31-3.616-0.602-1.169-0.274-2.292-0.648-3.369-1.123-1.059-0.475-2.036-1.068-2.931-1.78l3.397-5.78c1.37 0.767 2.931 1.388 4.684 1.863 1.771 0.475 3.616 0.712 5.533 0.712 1.333 0 2.392-0.137 3.178-0.411s1.178-0.813 1.178-1.616c0-0.42-0.1-0.767-0.301-1.041s-0.502-0.502-0.904-0.685c-0.384-0.201-0.877-0.374-1.479-0.52s-1.315-0.301-2.137-0.466c-4.036-0.767-7.040-1.899-9.012-3.397-1.972-1.516-2.958-3.497-2.958-5.944 0-1.424 0.283-2.684 0.849-3.78 0.566-1.114 1.379-2.045 2.438-2.794 1.077-0.767 2.383-1.342 3.917-1.726s3.278-0.575 5.232-0.575c2.502 0 4.739 0.265 6.711 0.794 1.972 0.511 3.716 1.224 5.232 2.137l-3.397 5.78z"></path>
</symbol>
<symbol id="icon-Vector" viewBox="0 0 48 32">
<path fill="#8ad5d0" style="fill: var(--color1, #8ad5d0)" d="M34 18l-10 10-10-10h6v-8h8v8h6zM38.7 12.060c-1.36-6.88-7.42-12.060-14.7-12.060-5.78 0-10.8 3.28-13.3 8.060-6.020 0.66-10.7 5.74-10.7 11.94 0 3.183 1.264 6.235 3.515 8.485s5.303 3.515 8.485 3.515h26c1.313 0 2.614-0.259 3.827-0.761s2.316-1.239 3.244-2.168 1.665-2.031 2.168-3.244c0.502-1.213 0.761-2.514 0.761-3.827 0-5.28-4.1-9.56-9.3-9.94z"></path>
</symbol>
<symbol id="icon-Vector-4" viewBox="0 0 34 32">
<path fill="#8ad5d0" style="fill: var(--color1, #8ad5d0)" d="M34.4 24l-8 8-5.6-5.6 2.4-2.4 3.2 3.2 5.6-5.6 2.4 2.4zM17.6 27.2c0-2.4 0.8-4.48 2.24-6.24l-5.44-3.36v-9.6h2.4v8.32l4.96 3.040c1.6-1.12 3.36-1.76 5.44-1.76 1.6 0 3.2 0.48 4.48 1.12 0.16-0.96 0.32-1.76 0.32-2.72 0-8.8-7.2-16-16-16s-16 7.2-16 16c0 8.8 7.2 16 16 16 0.96 0 1.92-0.16 2.72-0.32-0.64-1.28-1.12-2.88-1.12-4.48z"></path>
</symbol>
<symbol id="icon-Vector-3" viewBox="0 0 32 32">
<path fill="#8ad5d0" style="fill: var(--color1, #8ad5d0)" d="M28.444 0c0.943 0 1.847 0.375 2.514 1.041s1.041 1.571 1.041 2.514v24.889c0 1.973-1.6 3.556-3.556 3.556h-24.889c-0.943 0-1.847-0.375-2.514-1.041s-1.041-1.571-1.041-2.514v-24.889c0-0.943 0.375-1.847 1.041-2.514s1.571-1.041 2.514-1.041h24.889zM22.364 24.889l-1.689-7.253 5.618-4.853-7.413-0.64-2.88-6.809-2.88 6.827-7.413 0.64 5.618 4.853-1.689 7.236 6.364-3.84 6.364 3.84z"></path>
</symbol>
<symbol id="icon-Vector-2" viewBox="0 0 26 32">
<path fill="#8ad5d0" style="fill: var(--color1, #8ad5d0)" d="M3.2 0h19.2c0.849 0 1.663 0.337 2.263 0.937s0.937 1.414 0.937 2.263v25.6c0 0.849-0.337 1.663-0.937 2.263s-1.414 0.937-2.263 0.937h-19.2c-0.849 0-1.663-0.337-2.263-0.937s-0.937-1.414-0.937-2.263v-25.6c0-0.849 0.337-1.663 0.937-2.263s1.414-0.937 2.263-0.937zM14 18.4c4.4 0 5.584-3.248 5.888-4.96 1.456-0.464 2.512-1.824 2.512-3.44 0-2-1.6-3.6-3.6-3.6s-3.6 1.6-3.6 3.6c0 1.504 0.912 2.8 2.224 3.328-0.352 1.072-1.424 2.672-4.624 2.672-2.208 0-3.744 0.56-4.8 1.344v-6.352c1.392-0.496 2.4-1.824 2.4-3.392 0-2-1.6-3.6-3.6-3.6s-3.6 1.6-3.6 3.6c0 1.568 1.008 2.896 2.4 3.392v10.016c-1.392 0.496-2.4 1.824-2.4 3.392 0 2 1.6 3.6 3.6 3.6s3.6-1.6 3.6-3.6c0-1.488-0.896-2.8-2.192-3.312 0.448-1.088 1.76-2.688 5.792-2.688zM6.8 23.2c0.318 0 0.623 0.126 0.849 0.351s0.351 0.53 0.351 0.849c0 0.318-0.126 0.624-0.351 0.849s-0.53 0.351-0.849 0.351c-0.318 0-0.623-0.126-0.849-0.351s-0.351-0.53-0.351-0.849c0-0.318 0.126-0.624 0.351-0.849s0.53-0.351 0.849-0.351zM6.8 6.4c0.318 0 0.623 0.126 0.849 0.351s0.351 0.53 0.351 0.849c0 0.318-0.126 0.624-0.351 0.849s-0.53 0.351-0.849 0.351c-0.318 0-0.623-0.126-0.849-0.351s-0.351-0.53-0.351-0.849c0-0.318 0.126-0.623 0.351-0.849s0.53-0.351 0.849-0.351zM18.8 8.8c0.318 0 0.624 0.126 0.849 0.351s0.351 0.53 0.351 0.849c0 0.318-0.126 0.624-0.351 0.849s-0.53 0.351-0.849 0.351c-0.318 0-0.624-0.126-0.849-0.351s-0.351-0.53-0.351-0.849c0-0.318 0.126-0.624 0.351-0.849s0.53-0.351 0.849-0.351z"></path>
</symbol>
<symbol id="icon-Vector-1" viewBox="0 0 32 32">
<path fill="#8ad5d0" style="fill: var(--color1, #8ad5d0)" d="M15.2 28.8l7.776-15.568h-5.376v-10.032l-8 15.568h5.6v10.032zM16 0c4.4 0 8.16 1.6 11.28 4.72s4.72 6.88 4.72 11.28c0 4.4-1.6 8.16-4.72 11.28s-6.88 4.72-11.28 4.72c-4.4 0-8.16-1.6-11.28-4.72s-4.72-6.88-4.72-11.28c0-4.4 1.6-8.16 4.72-11.28s6.88-4.72 11.28-4.72z"></path>
</symbol>
<symbol id="icon-Group" viewBox="0 0 36 32">
<path d="M1.199 4.002c0-0.637 0.253-1.247 0.703-1.697s1.061-0.703 1.697-0.703h28.8c0.637 0 1.247 0.253 1.697 0.703s0.703 1.061 0.703 1.697-0.253 1.247-0.703 1.697c-0.45 0.45-1.060 0.703-1.697 0.703h-28.8c-0.637 0-1.247-0.253-1.697-0.703s-0.703-1.061-0.703-1.697z"></path>
<path d="M1.199 16.002c0-0.637 0.253-1.247 0.703-1.697s1.061-0.703 1.697-0.703h28.8c0.637 0 1.247 0.253 1.697 0.703s0.703 1.061 0.703 1.697-0.253 1.247-0.703 1.697c-0.45 0.45-1.060 0.703-1.697 0.703h-28.8c-0.637 0-1.247-0.253-1.697-0.703s-0.703-1.061-0.703-1.697z"></path>
<path d="M1.199 28.002c0-0.637 0.253-1.247 0.703-1.697s1.061-0.703 1.697-0.703h28.8c0.637 0 1.247 0.253 1.697 0.703s0.703 1.060 0.703 1.697c0 0.636-0.253 1.247-0.703 1.697s-1.060 0.703-1.697 0.703h-28.8c-0.637 0-1.247-0.253-1.697-0.703s-0.703-1.061-0.703-1.697z"></path>
</symbol>
</defs>
</svg>
