<svg width="36" height="36" viewBox="0 0 36 36" fill="none" xmlns="http://www.w3.org/2000/svg">
<path fill-rule="evenodd" clip-rule="evenodd" d="M34.8284 1.17157C34.0783 0.421427 33.0609 0 32 0H4C2.93913 0 1.92172 0.421427 1.17157 1.17157C0.421427 1.92172 0 2.93913 0 4V32C0 33.0609 0.421427 34.0783 1.17157 34.8284C1.92172 35.5786 2.93913 36 4 36H32C34.2 36 36 34.22 36 32V4C36 2.93913 35.5786 1.92172 34.8284 1.17157ZM26.4853 23.9167L20.4244 17.8558L26.4853 11.7948V15.4314L29.9279 15.4314V5.92788H20.4244V9.37048H24.0609L18 15.4314L11.9391 9.37048H15.5756V5.92788H6.07212L6.07212 15.4314L9.51472 15.4314V11.7948L15.5756 17.8558L9.51472 23.9167V20.2801H6.07212V29.7836H15.5756V26.341H11.9391L18 20.2801L24.0609 26.341H20.4244V29.7836H29.9279V20.2801H26.4853V23.9167Z" fill="#8AD5D0"/>
</svg>
