<svg width="115" height="58" viewBox="0 0 115 58" fill="none" xmlns="http://www.w3.org/2000/svg">
<rect x="0.5" y="0.5" width="34" height="23" rx="3.5" fill="white" stroke="#D9D9D9"/>
<path fill-rule="evenodd" clip-rule="evenodd" d="M10.6253 16.2582H8.50494L6.91495 10.1924C6.83949 9.91334 6.67925 9.66667 6.44354 9.5504C5.85531 9.25823 5.20712 9.0257 4.5 8.90843V8.6749H7.91567C8.38708 8.6749 8.74064 9.0257 8.79957 9.43313L9.62454 13.8086L11.7438 8.6749H13.8052L10.6253 16.2582ZM14.9838 16.2582H12.9813L14.6302 8.6749H16.6327L14.9838 16.2582ZM19.2234 10.7757C19.2823 10.3673 19.6359 10.1337 20.0483 10.1337C20.6965 10.0751 21.4026 10.1924 21.9919 10.4835L22.3454 8.85081C21.7562 8.61727 21.108 8.5 20.5198 8.5C18.5762 8.5 17.162 9.55041 17.162 11.0082C17.162 12.1173 18.1637 12.6996 18.8708 13.0504C19.6359 13.4002 19.9305 13.6338 19.8716 13.9835C19.8716 14.5082 19.2823 14.7418 18.6941 14.7418C17.9869 14.7418 17.2798 14.5669 16.6327 14.2747L16.2791 15.9085C16.9862 16.1996 17.7512 16.3169 18.4584 16.3169C20.6376 16.3745 21.9919 15.3251 21.9919 13.75C21.9919 11.7665 19.2234 11.6502 19.2234 10.7757ZM29 16.2582L27.41 8.6749H25.7022C25.3486 8.6749 24.9951 8.90843 24.8772 9.25823L21.9329 16.2582H23.9943L24.4058 15.1502H26.9386L27.1743 16.2582H29ZM25.9968 10.7171L26.585 13.5751H24.9361L25.9968 10.7171Z" fill="#172B85"/>
<rect x="40.5" y="0.5" width="34" height="23" rx="3.5" fill="white" stroke="#D9D9D9"/>
<path fill-rule="evenodd" clip-rule="evenodd" d="M57.75 17.1569C56.5584 18.1852 55.0128 18.806 53.3238 18.806C49.5551 18.806 46.5 15.7154 46.5 11.903C46.5 8.09057 49.5551 5 53.3238 5C55.0128 5 56.5584 5.62075 57.75 6.64903C58.9416 5.62075 60.4872 5 62.1762 5C65.9449 5 69 8.09057 69 11.903C69 15.7154 65.9449 18.806 62.1762 18.806C60.4872 18.806 58.9416 18.1852 57.75 17.1569Z" fill="#ED0006"/>
<path fill-rule="evenodd" clip-rule="evenodd" d="M57.75 17.1569C59.2172 15.8908 60.1475 14.0068 60.1475 11.903C60.1475 9.79917 59.2172 7.91517 57.75 6.64903C58.9416 5.62075 60.4872 5 62.1762 5C65.9449 5 69 8.09057 69 11.903C69 15.7154 65.9449 18.806 62.1762 18.806C60.4872 18.806 58.9416 18.1852 57.75 17.1569Z" fill="#F9A000"/>
<path fill-rule="evenodd" clip-rule="evenodd" d="M57.75 6.64905C59.2172 7.91518 60.1476 9.79917 60.1476 11.903C60.1476 14.0068 59.2172 15.8908 57.75 17.1569C56.2829 15.8908 55.3525 14.0068 55.3525 11.903C55.3525 9.79917 56.2829 7.91518 57.75 6.64905Z" fill="#FF5E00"/>
<rect x="80.5" y="0.5" width="34" height="23" rx="3.5" fill="white" stroke="#D9D9D9"/>
<path fill-rule="evenodd" clip-rule="evenodd" d="M89.9 15.241H88.3444C88.2379 15.241 88.1474 15.3183 88.1308 15.4234L87.5016 19.4125C87.4891 19.4912 87.5501 19.5621 87.6299 19.5621H88.3726C88.479 19.5621 88.5696 19.4848 88.5862 19.3795L88.7559 18.3036C88.7722 18.1982 88.863 18.121 88.9692 18.121H89.4617C90.4864 18.121 91.0778 17.6251 91.2323 16.6424C91.3019 16.2125 91.2353 15.8748 91.0339 15.6381C90.8129 15.3784 90.4206 15.241 89.9 15.241ZM90.0795 16.6979C89.9944 17.2561 89.5679 17.2561 89.1555 17.2561H88.9208L89.0855 16.2136C89.0952 16.1507 89.1498 16.1042 89.2135 16.1042H89.3211C89.602 16.1042 89.8671 16.1042 90.004 16.2643C90.0856 16.3599 90.1106 16.5018 90.0795 16.6979ZM94.5501 16.68H93.8052C93.7417 16.68 93.6869 16.7264 93.6771 16.7895L93.6441 16.9978L93.592 16.9223C93.4308 16.6882 93.0712 16.61 92.7122 16.61C91.889 16.61 91.1859 17.2335 91.049 18.1081C90.9778 18.5443 91.079 18.9615 91.3264 19.2524C91.5535 19.5199 91.8783 19.6314 92.2647 19.6314C92.928 19.6314 93.2959 19.2049 93.2959 19.2049L93.2626 19.4119C93.2501 19.4911 93.3111 19.562 93.3904 19.562H94.0615C94.1682 19.562 94.2582 19.4847 94.2751 19.3794L94.6777 16.8297C94.6904 16.7513 94.6297 16.68 94.5501 16.68ZM93.5117 18.1299C93.4398 18.5555 93.102 18.8412 92.6713 18.8412C92.455 18.8412 92.282 18.7718 92.1711 18.6403C92.061 18.5098 92.0191 18.3239 92.0541 18.117C92.1213 17.695 92.4647 17.4 92.889 17.4C93.1004 17.4 93.2724 17.4702 93.3857 17.6029C93.4992 17.7369 93.5442 17.9238 93.5117 18.1299ZM97.769 16.6799H98.5176C98.6224 16.6799 98.6836 16.7975 98.624 16.8835L96.1342 20.4774C96.0939 20.5356 96.0275 20.5702 95.9565 20.5702H95.2089C95.1036 20.5702 95.0421 20.4517 95.1031 20.3655L95.8783 19.2712L95.0538 16.8514C95.0253 16.7673 95.0874 16.6799 95.1769 16.6799H95.9124C96.008 16.6799 96.0923 16.7427 96.1199 16.8341L96.5575 18.2956L97.59 16.7748C97.6304 16.7154 97.6976 16.6799 97.769 16.6799Z" fill="#253B80"/>
<path fill-rule="evenodd" clip-rule="evenodd" d="M105.885 19.4124L106.524 15.3504C106.534 15.2874 106.588 15.2409 106.652 15.2407H107.37C107.45 15.2407 107.511 15.3119 107.498 15.3906L106.869 19.3795C106.852 19.4847 106.762 19.5621 106.655 19.5621H106.013C105.934 19.5621 105.873 19.4912 105.885 19.4124ZM100.996 15.2409H99.4401C99.3339 15.2409 99.2434 15.3183 99.2267 15.4234L98.5976 19.4124C98.5851 19.4912 98.646 19.5621 98.7255 19.5621H99.5238C99.598 19.5621 99.6615 19.508 99.6731 19.4343L99.8516 18.3036C99.868 18.1982 99.9587 18.1209 100.065 18.1209H100.557C101.582 18.1209 102.173 17.625 102.328 16.6424C102.398 16.2125 102.331 15.8747 102.129 15.6381C101.909 15.3784 101.517 15.2409 100.996 15.2409ZM101.175 16.6979C101.091 17.2561 100.664 17.2561 100.251 17.2561H100.017L100.182 16.2136C100.192 16.1506 100.246 16.1042 100.31 16.1042H100.417C100.698 16.1042 100.963 16.1042 101.1 16.2643C101.182 16.3599 101.207 16.5018 101.175 16.6979ZM105.646 16.68H104.901C104.837 16.68 104.783 16.7264 104.773 16.7895L104.74 16.9978L104.688 16.9223C104.527 16.6882 104.167 16.61 103.809 16.61C102.985 16.61 102.282 17.2335 102.145 18.1081C102.075 18.5443 102.175 18.9615 102.423 19.2524C102.65 19.5199 102.975 19.6314 103.361 19.6314C104.024 19.6314 104.392 19.2048 104.392 19.2048L104.359 19.4119C104.346 19.491 104.407 19.562 104.487 19.562H105.158C105.264 19.562 105.355 19.4846 105.371 19.3794L105.774 16.8297C105.787 16.7513 105.726 16.68 105.646 16.68ZM104.607 18.1299C104.536 18.5555 104.198 18.8412 103.767 18.8412C103.551 18.8412 103.378 18.7718 103.267 18.6403C103.157 18.5098 103.115 18.3239 103.15 18.1169C103.217 17.6949 103.56 17.4 103.985 17.4C104.196 17.4 104.368 17.4702 104.481 17.6028C104.595 17.7368 104.64 17.9238 104.607 18.1299Z" fill="#179BD7"/>
<path d="M95.6571 13.8139L95.8484 12.5992L95.4224 12.5893H93.3882L94.8019 3.62547C94.8062 3.5984 94.8205 3.57317 94.8413 3.55526C94.8622 3.53734 94.8889 3.52747 94.9167 3.52747H98.3467C99.4855 3.52747 100.271 3.76442 100.682 4.23212C100.874 4.45153 100.996 4.68081 101.056 4.93312C101.118 5.19788 101.119 5.51419 101.058 5.89998L101.054 5.92813V6.17532L101.246 6.2843C101.408 6.37023 101.537 6.4686 101.636 6.58123C101.8 6.76882 101.907 7.00724 101.952 7.28991C101.998 7.58062 101.983 7.92655 101.907 8.31819C101.819 8.76871 101.677 9.16108 101.485 9.48214C101.309 9.77798 101.085 10.0233 100.818 10.2135C100.563 10.3941 100.261 10.5313 99.9191 10.6191C99.5878 10.7053 99.2101 10.7489 98.7958 10.7489H98.5288C98.338 10.7489 98.1525 10.8176 98.007 10.9409C97.8611 11.0667 97.7645 11.2385 97.7349 11.4265L97.7148 11.5358L97.3769 13.6768L97.3616 13.7554C97.3576 13.7804 97.3506 13.7928 97.3404 13.8012C97.3312 13.8088 97.3181 13.8139 97.3052 13.8139H95.6571Z" fill="#253B80"/>
<path d="M101.428 5.95679C101.418 6.02224 101.406 6.08916 101.393 6.1579C100.941 8.48032 99.3932 9.28262 97.4166 9.28262H96.4103C96.1686 9.28262 95.965 9.45813 95.9273 9.69655L95.412 12.9643L95.2661 13.8905C95.2416 14.047 95.3623 14.1882 95.5202 14.1882H97.3052C97.5165 14.1882 97.696 14.0346 97.7293 13.8262L97.7469 13.7354L98.083 11.6028L98.1045 11.4859C98.1374 11.2767 98.3173 11.1231 98.5286 11.1231H98.7956C100.525 11.1231 101.879 10.421 102.274 8.38927C102.44 7.54053 102.354 6.83185 101.917 6.33343C101.784 6.18313 101.62 6.05844 101.428 5.95679Z" fill="#179BD7"/>
<path d="M100.955 5.76819C100.886 5.74808 100.815 5.72979 100.741 5.71334C100.668 5.69726 100.593 5.68299 100.515 5.67056C100.244 5.62668 99.9464 5.60583 99.6279 5.60583H96.9395C96.8732 5.60583 96.8104 5.62082 96.7541 5.64789C96.6301 5.70749 96.538 5.82488 96.5157 5.96858L95.9437 9.59098L95.9272 9.69665C95.9649 9.45823 96.1686 9.28271 96.4103 9.28271H97.4166C99.3931 9.28271 100.941 8.48005 101.393 6.158C101.407 6.08926 101.418 6.02234 101.428 5.95689C101.314 5.89618 101.19 5.84426 101.056 5.8C101.023 5.78904 100.989 5.77844 100.955 5.76819Z" fill="#222D65"/>
<path d="M96.5156 5.96854C96.5379 5.82483 96.6301 5.70745 96.754 5.6482C96.8107 5.62114 96.8733 5.60615 96.9394 5.60615H99.6279C99.9464 5.60615 100.244 5.62699 100.515 5.67088C100.593 5.68331 100.668 5.69757 100.741 5.71366C100.815 5.73012 100.886 5.7484 100.955 5.76851C100.989 5.77875 101.023 5.78935 101.057 5.79996C101.19 5.84421 101.314 5.8965 101.428 5.95684C101.563 5.09859 101.427 4.51424 100.963 3.98511C100.452 3.40259 99.5284 3.1532 98.3469 3.1532H94.9168C94.6755 3.1532 94.4697 3.32871 94.4323 3.5675L93.0037 12.6235C92.9755 12.8026 93.1137 12.9643 93.2943 12.9643H95.412L95.9437 9.59093L96.5156 5.96854Z" fill="#253B80"/>
<rect x="0.5" y="34.5" width="34" height="23" rx="3.5" fill="white" stroke="#D9D9D9"/>
<path fill-rule="evenodd" clip-rule="evenodd" d="M25.6269 46.0646C25.6269 50.5185 22.0165 54.1292 17.5627 54.1292C13.109 54.1292 9.49854 50.5185 9.49854 46.0646C9.49854 41.6106 13.109 38 17.5627 38C22.0165 38 25.6269 41.6106 25.6269 46.0646ZM19.5001 43.0683C20.6219 43.4535 21.4424 44.0303 21.2815 45.1038C21.1645 45.8899 20.7272 46.2701 20.146 46.4032C20.9433 46.8167 21.215 47.6014 20.9626 48.5502C20.4832 49.9157 19.3437 50.0306 17.8281 49.7452L17.4601 51.213L16.5717 50.9922L16.9346 49.5441C16.7043 49.4871 16.4689 49.4261 16.2265 49.361L15.862 50.8162L14.9746 50.5954L15.3421 49.1245L13.5527 48.6748L13.9941 47.6613C13.9941 47.6613 14.6491 47.8342 14.64 47.8216C14.8916 47.8836 15.0035 47.7203 15.0475 47.6119L16.0447 43.628C16.0559 43.4399 15.9906 43.2029 15.6307 43.1132C15.6443 43.1036 14.9852 42.9533 14.9852 42.9533L15.2216 42.0079L17.0136 42.4501L17.3781 40.9959L18.266 41.2168L17.9091 42.6422C18.148 42.6962 18.388 42.7511 18.6213 42.8091L18.9757 41.3927L19.8641 41.6136L19.5001 43.0683ZM17.3744 45.4941C17.9796 45.6545 19.2964 46.0037 19.5259 45.0882C19.7601 44.1516 18.4807 43.8688 17.8543 43.7303L17.8543 43.7303C17.7833 43.7146 17.7207 43.7007 17.6697 43.688L17.2272 45.4558C17.2694 45.4662 17.3189 45.4794 17.3744 45.4941ZM16.6887 48.3404C17.4136 48.5313 18.9988 48.9489 19.251 47.9402C19.5092 46.9088 17.9722 46.5652 17.2223 46.3976C17.1385 46.3789 17.0645 46.3624 17.004 46.3473L16.516 48.2956C16.5656 48.3079 16.6236 48.3232 16.6886 48.3403L16.6887 48.3404Z" fill="#F7931A"/>
<rect x="40.5" y="34.5" width="34" height="23" rx="3.5" fill="white" stroke="#D9D9D9"/>
<circle cx="57.435" cy="45.935" r="7.93499" fill="#6481E7"/>
<path fill-rule="evenodd" clip-rule="evenodd" d="M57.5281 40.3518V48.362L61.0874 46.2578L57.5281 40.3518Z" fill="#C1CCF5"/>
<path fill-rule="evenodd" clip-rule="evenodd" d="M53.9685 46.2578L57.5279 48.362V40.3518L53.9685 46.2578Z" fill="white"/>
<path fill-rule="evenodd" clip-rule="evenodd" d="M57.5281 44.6401L53.9685 46.2578L57.5279 48.362L61.0874 46.258L57.5281 44.6401Z" fill="#8299EC"/>
<path fill-rule="evenodd" clip-rule="evenodd" d="M57.5281 44.6401L53.9685 46.2578L57.5279 48.362L57.5281 44.6401Z" fill="#C1CCF5"/>
<path fill-rule="evenodd" clip-rule="evenodd" d="M57.5281 49.0358V51.9491L61.0898 46.9329L57.5281 49.0358Z" fill="#C1CCF5"/>
<path fill-rule="evenodd" clip-rule="evenodd" d="M53.9685 46.9329L57.5279 51.9488V49.0358L53.9685 46.9329Z" fill="white"/>
<rect x="80.5" y="34.5" width="34" height="23" rx="3.5" fill="white" stroke="#D9D9D9"/>
<path d="M90.8277 39.0016H96.3435C97.1135 39.0016 97.5924 39.6292 97.4127 40.4017L94.8448 51.427C94.6635 52.1969 93.8926 52.825 93.1221 52.825H87.6069C86.838 52.825 86.3581 52.1969 86.5377 51.427L89.1067 40.4017C89.2864 39.6292 90.0568 39.0016 90.8277 39.0016Z" fill="#E21836"/>
<path d="M95.8843 39H102.227C102.997 39 102.65 39.6276 102.469 40.4001L99.9013 51.4255C99.7211 52.1953 99.7773 52.8234 99.0059 52.8234H92.6629C91.8915 52.8234 91.4141 52.1953 91.5953 51.4255L94.1627 40.4001C94.345 39.6276 95.1139 39 95.8843 39Z" fill="#00447C"/>
<path d="M101.976 39H107.492C108.263 39 108.742 39.6276 108.56 40.4001L105.993 51.4255C105.812 52.1953 105.04 52.8234 104.269 52.8234H98.7561C97.9846 52.8234 97.5061 52.1953 97.6868 51.4255L100.255 40.4001C100.434 39.6276 101.204 39 101.976 39Z" fill="#007B84"/>
<path d="M92.268 42.5334C91.7008 42.5392 91.5333 42.5334 91.4798 42.5207C91.4592 42.6185 91.0765 44.3841 91.0754 44.3856C90.993 44.7428 90.933 44.9974 90.7293 45.1619C90.6137 45.2575 90.4787 45.3036 90.3223 45.3036C90.0707 45.3036 89.9242 45.1787 89.8996 44.9418L89.8949 44.8604C89.8949 44.8604 89.9715 44.382 89.9715 44.3793C89.9715 44.3793 90.3732 42.7703 90.4451 42.5576C90.4489 42.5455 90.45 42.5392 90.4509 42.5334C89.669 42.5402 89.5304 42.5334 89.5208 42.5207C89.5156 42.5381 89.4962 42.6378 89.4962 42.6378L89.0861 44.4513L89.0508 44.6051L88.9827 45.1082C88.9827 45.2575 89.012 45.3793 89.0703 45.4822C89.2572 45.8088 89.7903 45.8577 90.0918 45.8577C90.4804 45.8577 90.8448 45.7752 91.0911 45.6245C91.5187 45.3719 91.6305 44.977 91.7303 44.6261L91.7765 44.4461C91.7765 44.4461 92.1903 42.775 92.2606 42.5576C92.2633 42.5455 92.2644 42.5392 92.268 42.5334ZM93.676 43.8815C93.5763 43.8815 93.394 43.9057 93.2302 43.986C93.1708 44.0165 93.1146 44.0517 93.0553 44.0868L93.1088 43.8936L93.0795 43.8611C92.7322 43.9314 92.6545 43.9408 92.3337 43.986L92.3069 44.0038C92.2696 44.3126 92.2365 44.5448 92.0985 45.1518C92.0459 45.3756 91.9913 45.6014 91.9366 45.8246L91.9514 45.853C92.2801 45.8356 92.3799 45.8356 92.6655 45.8403L92.6887 45.8152C92.725 45.6292 92.7297 45.5857 92.8101 45.2091C92.8479 45.0306 92.9266 44.6383 92.9655 44.4986C93.0369 44.4655 93.1073 44.433 93.1745 44.433C93.3347 44.433 93.3152 44.5727 93.309 44.6283C93.3021 44.7218 93.2438 45.0269 93.184 45.289L93.144 45.4581C93.1162 45.583 93.0857 45.7044 93.0578 45.8282L93.0699 45.853C93.394 45.8356 93.4928 45.8356 93.7695 45.8403L93.802 45.8152C93.852 45.5248 93.8667 45.4471 93.9554 45.0243L94 44.83C94.0867 44.4498 94.1303 44.257 94.0647 44.1C93.9953 43.924 93.8289 43.8815 93.676 43.8815ZM95.2489 44.2796C95.0767 44.3126 94.9668 44.3347 94.8577 44.3489C94.7494 44.3663 94.6439 44.382 94.4775 44.4051L94.4643 44.4171L94.4522 44.4266C94.4348 44.5506 94.4227 44.6578 94.3997 44.7837C94.3803 44.914 94.3503 45.062 94.3015 45.2747C94.2637 45.4375 94.2442 45.4943 94.2227 45.5515C94.2017 45.6088 94.1786 45.6645 94.1361 45.8246L94.1461 45.8394L94.1544 45.8529C94.3099 45.8456 94.4117 45.8403 94.5163 45.8394C94.6208 45.8356 94.729 45.8394 94.8965 45.8403L94.9112 45.8283L94.9269 45.8152C94.9511 45.6708 94.9547 45.6319 94.9695 45.5615C94.9842 45.4859 95.0094 45.3813 95.0714 45.1019C95.1007 44.9707 95.1334 44.8399 95.1638 44.706C95.1954 44.5726 95.2285 44.4413 95.2599 44.3101L95.2552 44.2942L95.2489 44.2796ZM95.2526 43.7428C95.0961 43.6505 94.8214 43.6798 94.6365 43.8074C94.4522 43.9324 94.4312 44.1099 94.5872 44.2034C94.741 44.2932 95.0167 44.2665 95.2 44.1378C95.3839 44.0101 95.4069 43.8343 95.2526 43.7428ZM96.199 45.8819C96.5156 45.8819 96.8401 45.7946 97.0844 45.5357C97.2724 45.3257 97.3585 45.0133 97.3884 44.8846C97.4856 44.4581 97.4099 44.259 97.3148 44.1378C97.1704 43.9529 96.9153 43.8936 96.6506 43.8936C96.4914 43.8936 96.1123 43.9093 95.8161 44.1824C95.6034 44.3794 95.5051 44.6466 95.4458 44.9029C95.386 45.164 95.3172 45.634 95.7494 45.8089C95.8828 45.8662 96.075 45.8819 96.199 45.8819ZM96.1742 44.9224C96.2472 44.5994 96.3334 44.3284 96.5534 44.3284C96.7257 44.3284 96.7382 44.5301 96.6616 44.8541C96.6479 44.926 96.585 45.1934 96.4998 45.3073C96.4404 45.3913 96.3701 45.4423 96.2924 45.4423C96.2693 45.4423 96.1317 45.4423 96.1296 45.238C96.1285 45.1372 96.1491 45.0342 96.1742 44.9224ZM98.1798 45.8404L98.2046 45.8152C98.2397 45.6293 98.2455 45.5856 98.3232 45.2092C98.362 45.0306 98.4424 44.6383 98.4802 44.4986C98.5517 44.4654 98.6209 44.4329 98.6903 44.4329C98.8494 44.4329 98.83 44.5726 98.8237 44.6282C98.8179 44.7218 98.7596 45.0268 98.6987 45.2889L98.6609 45.458C98.632 45.583 98.6005 45.7043 98.5727 45.8283L98.5848 45.853C98.9099 45.8357 99.0049 45.8357 99.2832 45.8404L99.3168 45.8152C99.3656 45.5247 99.3788 45.447 99.4702 45.0243L99.5138 44.8299C99.6009 44.4497 99.645 44.257 99.5805 44.1C99.5091 43.924 99.3416 43.8815 99.1909 43.8815C99.091 43.8815 98.9077 43.9056 98.7449 43.986C98.6867 44.0165 98.6283 44.0516 98.5711 44.0868L98.621 43.8936L98.5942 43.861C98.2471 43.9314 98.1677 43.9408 97.8474 43.986L97.8228 44.0039C97.7839 44.3127 97.7523 44.5447 97.6142 45.1519C97.5617 45.3756 97.5071 45.6015 97.4525 45.8246L97.4672 45.853C97.7964 45.8357 97.8947 45.8357 98.1798 45.8404ZM100.568 45.8529C100.589 45.7532 100.71 45.1619 100.711 45.1619C100.711 45.1619 100.815 44.7281 100.821 44.7123C100.821 44.7123 100.853 44.6671 100.886 44.6493H100.934C101.385 44.6493 101.895 44.6493 102.295 44.3552C102.567 44.1536 102.753 43.8558 102.836 43.4939C102.857 43.4051 102.873 43.2996 102.873 43.1941C102.873 43.0555 102.845 42.9183 102.765 42.8112C102.561 42.526 102.155 42.5208 101.687 42.5186C101.685 42.5186 101.456 42.5208 101.456 42.5208C100.856 42.5282 100.616 42.526 100.517 42.5139C100.508 42.5576 100.493 42.6353 100.493 42.6353C100.493 42.6353 100.278 43.631 100.278 43.6326C100.278 43.6326 99.7638 45.7495 99.7396 45.8493C100.263 45.843 100.478 45.843 100.568 45.8529ZM100.966 44.0842C100.966 44.0842 101.195 43.0905 101.194 43.0943L101.201 43.0434L101.204 43.0045L101.296 43.0139C101.296 43.0139 101.767 43.0544 101.778 43.0555C101.964 43.1274 102.04 43.3128 101.987 43.5548C101.938 43.7759 101.795 43.9619 101.61 44.0517C101.458 44.1278 101.272 44.1341 101.081 44.1341H100.957L100.966 44.0842ZM102.389 44.9408C102.328 45.1981 102.259 45.6681 102.689 45.8356C102.826 45.894 102.949 45.9113 103.074 45.905C103.206 45.8979 103.328 45.8317 103.441 45.7365C103.431 45.7757 103.421 45.8148 103.41 45.854L103.43 45.8792C103.739 45.8661 103.835 45.8661 104.17 45.8687L104.201 45.8456C104.25 45.5579 104.296 45.2785 104.423 44.7281C104.485 44.4644 104.547 44.2034 104.61 43.9408L104.601 43.9119C104.254 43.976 104.162 43.9897 103.829 44.0369L103.804 44.0575C103.8 44.0842 103.797 44.1099 103.794 44.1356C103.742 44.052 103.667 43.9806 103.551 43.9361C103.403 43.8779 103.056 43.9529 102.757 44.225C102.547 44.4193 102.446 44.6855 102.389 44.9408ZM103.115 44.9565C103.189 44.6394 103.275 44.371 103.495 44.371C103.634 44.371 103.708 44.4997 103.693 44.7191C103.681 44.7738 103.668 44.8315 103.653 44.8967C103.631 44.9909 103.607 45.0844 103.584 45.1779C103.56 45.2419 103.533 45.3023 103.502 45.3425C103.446 45.4229 103.311 45.4728 103.233 45.4728C103.211 45.4728 103.075 45.4728 103.07 45.2722C103.069 45.1723 103.09 45.0694 103.115 44.9565ZM106.911 43.9093L106.884 43.8788C106.542 43.9482 106.48 43.9592 106.165 44.0017L106.142 44.0248C106.141 44.0286 106.14 44.0344 106.138 44.0396L106.137 44.0344C105.903 44.5747 105.91 44.4581 105.719 44.8835C105.718 44.8641 105.718 44.852 105.717 44.8315L105.669 43.9093L105.639 43.8788C105.281 43.9482 105.272 43.9592 104.941 44.0017L104.915 44.0248C104.911 44.0358 104.911 44.0479 104.909 44.0611L104.911 44.0658C104.953 44.2774 104.943 44.2302 104.984 44.5642C105.004 44.7281 105.03 44.8929 105.049 45.0548C105.082 45.3257 105.1 45.459 105.14 45.8725C104.916 46.2416 104.863 46.3813 104.648 46.7053L104.649 46.7086L104.498 46.9484C104.48 46.9737 104.465 46.991 104.443 46.9984C104.418 47.0104 104.387 47.0125 104.343 47.0125H104.259L104.134 47.428L104.563 47.4353C104.814 47.4343 104.972 47.3166 105.057 47.1585L105.327 46.6969H105.323L105.351 46.6643C105.532 46.2742 106.911 43.9093 106.911 43.9093ZM102.389 49.3653H102.207L102.88 47.1402H103.103L103.174 46.911L103.18 47.1659C103.172 47.3234 103.296 47.4631 103.622 47.44H103.998L104.128 47.0115H103.986C103.905 47.0115 103.867 46.9909 103.872 46.9469L103.865 46.6875H103.167V46.6889C102.942 46.6936 102.269 46.7105 102.132 46.7468C101.967 46.7893 101.793 46.9143 101.793 46.9143L101.862 46.6848H101.209L101.074 47.1402L100.392 49.3994H100.26L100.13 49.8247H101.429L101.385 49.9666H102.026L102.068 49.8247H102.248L102.389 49.3653ZM101.855 47.5923C101.751 47.6212 101.557 47.7089 101.557 47.7089L101.73 47.1402H102.248L102.123 47.5545C102.123 47.5545 101.963 47.5639 101.855 47.5923ZM101.865 48.4047C101.865 48.4047 101.703 48.4252 101.595 48.4494C101.49 48.4814 101.292 48.5822 101.292 48.5822L101.471 47.9904H101.992L101.865 48.4047ZM101.575 49.3706H101.055L101.206 48.8711H101.724L101.575 49.3706ZM102.827 47.9904H103.576L103.469 48.3391H102.709L102.595 48.7204H103.26L102.757 49.4288C102.722 49.4808 102.69 49.4992 102.655 49.5139C102.62 49.5318 102.573 49.5527 102.52 49.5527H102.336L102.209 49.9703H102.691C102.942 49.9703 103.09 49.8563 103.199 49.7067L103.544 49.2345L103.618 49.7139C103.634 49.8038 103.698 49.8563 103.742 49.8768C103.79 49.901 103.84 49.9425 103.911 49.9487C103.986 49.9519 104.041 49.9545 104.077 49.9545H104.314L104.456 49.4871H104.363C104.309 49.4871 104.217 49.4781 104.201 49.4613C104.185 49.4409 104.185 49.4094 104.177 49.3616L104.102 48.8811H103.794L103.929 48.7204H104.687L104.803 48.3391H104.102L104.211 47.9904H104.91L105.04 47.5603H102.955L102.827 47.9904ZM96.4977 49.4677L96.6726 48.8858H97.3915L97.5229 48.4531H96.8033L96.9132 48.0949H97.6163L97.7466 47.6758H95.9872L95.8597 48.0949H96.2594L96.1527 48.4531H95.752L95.6191 48.8932H96.0187L95.7856 49.663C95.7541 49.7649 95.8004 49.8038 95.8297 49.8511C95.8597 49.8972 95.89 49.9278 95.9583 49.9451C96.0288 49.9608 96.0771 49.9702 96.1427 49.9702H96.9531L97.0975 49.4908L96.7382 49.5402C96.6689 49.5402 96.4768 49.5318 96.4977 49.4677ZM96.5802 46.6822L96.398 47.0114C96.359 47.0834 96.3239 47.128 96.2923 47.1486C96.2645 47.1659 96.2094 47.1732 96.1295 47.1732H96.0345L95.9074 47.5944H96.2231C96.3749 47.5944 96.4914 47.5387 96.5471 47.5109C96.6069 47.4789 96.6227 47.4972 96.6689 47.4526L96.7755 47.3602H97.7613L97.8921 46.9216H97.1705L97.2965 46.6822H96.5802ZM98.0354 49.4761C98.0186 49.4519 98.0307 49.4093 98.0564 49.3206L98.3258 48.4288H99.2843C99.424 48.4268 99.5248 48.4252 99.5904 48.4205C99.6609 48.4131 99.7375 48.388 99.821 48.3428C99.9071 48.2955 99.9512 48.2456 99.9885 48.1883C100.03 48.1312 100.097 48.0061 100.154 47.8134L100.493 46.6848L99.498 46.6906C99.498 46.6906 99.1918 46.7358 99.0569 46.7857C98.9209 46.8413 98.7265 46.9968 98.7265 46.9968L98.8163 46.6874H98.2019L97.3417 49.5401C97.3112 49.6509 97.2908 49.7313 97.2861 49.7796C97.2844 49.8316 97.3517 49.8831 97.3952 49.922C97.4467 49.9608 97.5228 49.9545 97.5958 49.9608C97.6726 49.9666 97.7817 49.9702 97.9325 49.9702H98.4046L98.5495 49.4808L98.1269 49.5208C98.0817 49.5208 98.049 49.4966 98.0354 49.4761ZM98.4997 47.8265H99.5064L99.4424 48.0271C99.4334 48.0318 99.4119 48.0172 99.3094 48.0293H98.4377L98.4997 47.8265ZM98.7013 47.1538H99.7165L99.6435 47.3954C99.6435 47.3954 99.165 47.3907 99.0884 47.4048C98.7512 47.4631 98.5543 47.6433 98.5543 47.6433L98.7013 47.1538ZM99.4649 48.6988C99.4566 48.7288 99.4434 48.7471 99.425 48.7608C99.4045 48.774 99.3715 48.7787 99.3221 48.7787H99.1787L99.1872 48.5344H98.5905L98.5663 49.7287C98.5654 49.8148 98.5737 49.8647 98.6367 49.9047C98.6998 49.9545 98.8941 49.9609 99.1556 49.9609H99.5294L99.6644 49.5138L99.3389 49.5317L99.2307 49.538C99.2159 49.5317 99.2018 49.5259 99.1861 49.5102C99.1724 49.4966 99.1492 49.505 99.153 49.4188L99.1556 49.1127L99.4969 49.0985C99.6812 49.0985 99.76 49.0386 99.8272 48.9814C99.8914 48.9267 99.9123 48.8638 99.9365 48.7787L99.9938 48.5077H99.5247L99.4649 48.6988Z" fill="#FEFEFE"/>
</svg>
