<svg width="19" height="19" viewBox="0 0 19 19" fill="none" xmlns="http://www.w3.org/2000/svg">
<g clip-path="url(#clip0_24_25)">
<path fill-rule="evenodd" clip-rule="evenodd" d="M13.6562 11.7266C13.6562 13.4481 11.7948 14.8438 9.5 14.8438C7.33073 14.8438 5.5575 13.596 5.36809 12.0053C5.36513 11.9914 5.36394 11.9768 5.36186 11.9635C5.36127 11.9549 5.35889 11.946 5.3583 11.9373H5.35978C5.35741 11.9166 5.35325 11.8961 5.35325 11.8747C5.35325 11.5467 5.61895 11.281 5.947 11.281C6.26881 11.281 6.52947 11.5377 6.53867 11.8572L6.54164 11.8566C6.64495 12.8618 7.92805 13.6562 9.5 13.6562C11.1393 13.6562 12.4688 12.7926 12.4688 11.7266C12.4688 10.6608 10.8149 10.0563 9.20342 9.66684C9.14939 9.65378 9.09773 9.64814 9.04519 9.63864C7.28709 9.24587 5.34375 8.36 5.34375 6.67969C5.34375 4.95811 7.07156 3.5625 9.20342 3.5625C11.2186 3.5625 12.8654 4.81264 13.0387 6.40448C13.0423 6.41962 13.0432 6.43536 13.045 6.4505C13.0465 6.46475 13.0494 6.4793 13.0509 6.49444H13.0494C13.0503 6.50661 13.0533 6.51819 13.0533 6.53125C13.0533 6.8593 12.7876 7.125 12.4595 7.125C12.1443 7.125 11.8887 6.878 11.8694 6.56806H11.8673C11.7865 5.55453 10.6263 4.75 9.20342 4.75C7.72736 4.75 6.53125 5.61361 6.53125 6.67969C6.53125 7.54122 7.90667 8.15516 9.20342 8.45233V8.45173C11.3964 8.91545 13.6562 9.81023 13.6562 11.7266ZM17.5159 11.875C17.1879 11.875 16.9222 11.6093 16.9222 11.2812C16.9222 10.9532 17.1879 10.6875 17.5159 10.6875C17.8437 10.6875 18.1097 10.9532 18.1097 11.2812C18.1097 11.6093 17.8434 11.875 17.5159 11.875ZM14.25 19C13.4179 19 12.6377 18.7821 11.9578 18.4057C11.9424 18.3991 11.9281 18.3965 11.9124 18.3875C11.742 18.2931 11.5455 18.2391 11.3368 18.2391C11.2611 18.2391 11.1871 18.2462 11.115 18.2599C11.0381 18.2744 10.9654 18.2822 10.895 18.2872C10.4408 18.3623 9.97589 18.4062 9.5 18.4062C4.58108 18.4062 0.59375 14.4192 0.59375 9.5C0.59375 9.02411 0.637391 8.56009 0.7125 8.10528C0.717547 8.03492 0.725266 7.96219 0.739813 7.885C0.753469 7.81286 0.760594 7.73894 0.760594 7.66323C0.760594 7.45453 0.706563 7.258 0.612453 7.08759C0.603844 7.07156 0.600875 7.05731 0.594047 7.04217C0.217906 6.36203 0 5.58184 0 4.75C0 2.12681 2.12681 0 4.75 0C5.58214 0 6.36233 0.217906 7.04217 0.594344C7.05761 0.600875 7.07186 0.603844 7.08759 0.612453C7.258 0.706859 7.45453 0.760891 7.66323 0.760891C7.73894 0.760891 7.81286 0.753766 7.885 0.740109C7.96189 0.725563 8.03463 0.717844 8.10498 0.712797C8.56009 0.637688 9.02411 0.59375 9.5 0.59375C14.1758 0.59375 17.9969 4.20078 18.3638 8.78245C18.4048 8.97334 18.3614 9.17819 18.2139 9.32573C17.9814 9.55819 17.6059 9.55819 17.374 9.32573C17.2683 9.22064 17.2173 9.08408 17.2078 8.94662L17.1903 8.94722C16.9061 4.94356 13.5761 1.78125 9.5 1.78125C9.0728 1.78125 8.65361 1.81866 8.24541 1.88575C8.20652 1.8908 8.16911 1.89436 8.12873 1.90297C7.97822 1.93266 7.82236 1.94839 7.66323 1.94839C7.2393 1.94839 6.84119 1.83736 6.49652 1.64261C6.44902 1.61589 6.40567 1.59511 6.36559 1.57789C5.88139 1.32852 5.33217 1.1875 4.75 1.1875C2.78231 1.1875 1.1875 2.78231 1.1875 4.75C1.1875 5.33217 1.32852 5.88139 1.57759 6.36559C1.59481 6.40597 1.61559 6.44902 1.64231 6.49652C1.83736 6.84119 1.94809 7.2393 1.94809 7.66323C1.94809 7.82236 1.93206 7.97852 1.90297 8.12873C1.89436 8.16911 1.8905 8.20652 1.88545 8.24452C1.81866 8.65361 1.78125 9.0725 1.78125 9.5C1.78125 13.7628 5.23717 17.2188 9.5 17.2188C9.9275 17.2188 10.3464 17.1813 10.7552 17.1143C10.7935 17.1089 10.8309 17.1056 10.8713 17.0967C11.0218 17.067 11.1776 17.0516 11.3368 17.0516C11.7607 17.0516 12.1588 17.1623 12.5035 17.3574C12.551 17.3841 12.5943 17.4049 12.6344 17.4221C13.1186 17.6715 13.6678 17.8125 14.25 17.8125C16.2177 17.8125 17.8125 16.2177 17.8125 14.25C17.8125 13.922 18.0782 13.6562 18.4062 13.6562C18.7343 13.6562 19 13.922 19 14.25C19 16.8732 16.8732 19 14.25 19Z" fill="#3AA1E0"/>
</g>
<defs>
<clipPath id="clip0_24_25">
<rect width="19" height="19" fill="white"/>
</clipPath>
</defs>
</svg>
