<svg width="64" height="14" viewBox="0 0 64 14" fill="none" xmlns="http://www.w3.org/2000/svg">
<path d="M53.4221 12.984H49L53.5899 6.52456L49.4314 0.640381H53.8536L56.1185 3.98394L58.3835 0.640381H62.8057L58.6472 6.52456L63.2371 12.984H58.815L56.1185 9.07717L53.4221 12.984Z" fill="black"/>
<path d="M36.4221 12.984H32L36.5899 6.52456L32.4314 0.640381H36.8536L39.1185 3.98394L41.3835 0.640381H45.8057L41.6472 6.52456L46.2371 12.984H41.815L39.1185 9.07717L36.4221 12.984Z" fill="black"/>
<path d="M19.4221 12.984H15L19.5899 6.52456L15.4314 0.640381H19.8536L22.1185 3.98394L24.3835 0.640381H28.8057L24.6472 6.52456L29.2371 12.984H24.815L22.1185 9.07717L19.4221 12.984Z" fill="black"/>
<path d="M9.69512 4.09182C9.43946 3.97997 9.15983 3.87611 8.85624 3.78024C8.56063 3.68436 8.24904 3.60047 7.92148 3.52857C7.6019 3.45666 7.27434 3.40074 6.93878 3.36079C6.60323 3.32085 6.27566 3.30087 5.95609 3.30087C5.48471 3.30087 5.11321 3.37278 4.84157 3.51659C4.57792 3.6524 4.44609 3.86812 4.44609 4.16373C4.44609 4.32351 4.49403 4.45933 4.5899 4.57118C4.69376 4.67505 4.83358 4.77092 5.00935 4.8588C5.18511 4.9387 5.38884 5.0106 5.62053 5.07452C5.86022 5.13044 6.11987 5.18237 6.3995 5.23031C7.22241 5.3901 7.96542 5.57785 8.62854 5.79356C9.29965 6.00927 9.86689 6.28091 10.3303 6.60848C10.8017 6.92805 11.1612 7.31953 11.4088 7.78292C11.6645 8.23831 11.7923 8.78958 11.7923 9.43672C11.7923 10.1558 11.6286 10.763 11.301 11.2583C10.9814 11.7536 10.55 12.1571 10.0067 12.4687C9.47142 12.7723 8.85224 12.992 8.14917 13.1278C7.44611 13.2716 6.71508 13.3435 5.95609 13.3435C5.4208 13.3435 4.88152 13.3156 4.33824 13.2596C3.79496 13.2117 3.26766 13.1238 2.75634 12.996C2.24502 12.8762 1.75367 12.7124 1.2823 12.5046C0.818912 12.2969 0.39148 12.0373 0 11.7257L1.48603 9.19704C2.08523 9.53259 2.76832 9.80423 3.5353 10.012C4.31027 10.2197 5.1172 10.3235 5.95609 10.3235C6.53931 10.3235 7.0027 10.2636 7.34624 10.1438C7.68978 10.0239 7.86156 9.78825 7.86156 9.43672C7.86156 9.25296 7.81762 9.10117 7.72973 8.98133C7.64185 8.86148 7.51002 8.76162 7.33426 8.68172C7.16648 8.59384 6.95077 8.51794 6.68712 8.45403C6.42347 8.39011 6.11188 8.3222 5.75236 8.2503C3.9867 7.91474 2.67245 7.4194 1.8096 6.76427C0.946742 6.10115 0.515315 5.2343 0.515315 4.16373C0.515315 3.54055 0.639151 2.98929 0.886822 2.50992C1.13449 2.02257 1.49002 1.61511 1.95341 1.28755C2.42478 0.951992 2.99602 0.700327 3.66713 0.532549C4.33824 0.364772 5.10122 0.280884 5.95609 0.280884C7.05063 0.280884 8.02933 0.39673 8.89219 0.628422C9.75504 0.852125 10.518 1.16371 11.1811 1.56318L9.69512 4.09182Z" fill="black"/>
</svg>
