<svg width="32" height="40" viewBox="0 0 32 40" fill="none" xmlns="http://www.w3.org/2000/svg">
<path d="M4 0H28C29.0609 0 30.0783 0.421427 30.8284 1.17157C31.5786 1.92172 32 2.93913 32 4V36C32 37.0609 31.5786 38.0783 30.8284 38.8284C30.0783 39.5786 29.0609 40 28 40H4C2.93913 40 1.92172 39.5786 1.17157 38.8284C0.421427 38.0783 0 37.0609 0 36V4C0 2.93913 0.421427 1.92172 1.17157 1.17157C1.92172 0.421427 2.93913 0 4 0ZM17.5 23C23 23 24.48 18.94 24.86 16.8C26.68 16.22 28 14.52 28 12.5C28 10 26 8 23.5 8C21 8 19 10 19 12.5C19 14.38 20.14 16 21.78 16.66C21.34 18 20 20 16 20C13.24 20 11.32 20.7 10 21.68V13.74C11.74 13.12 13 11.46 13 9.5C13 7 11 5 8.5 5C6 5 4 7 4 9.5C4 11.46 5.26 13.12 7 13.74V26.26C5.26 26.88 4 28.54 4 30.5C4 33 6 35 8.5 35C11 35 13 33 13 30.5C13 28.64 11.88 27 10.26 26.36C10.82 25 12.46 23 17.5 23ZM8.5 29C8.89782 29 9.27936 29.158 9.56066 29.4393C9.84196 29.7206 10 30.1022 10 30.5C10 30.8978 9.84196 31.2794 9.56066 31.5607C9.27936 31.842 8.89782 32 8.5 32C8.10218 32 7.72064 31.842 7.43934 31.5607C7.15804 31.2794 7 30.8978 7 30.5C7 30.1022 7.15804 29.7206 7.43934 29.4393C7.72064 29.158 8.10218 29 8.5 29ZM8.5 8C8.89782 8 9.27936 8.15804 9.56066 8.43934C9.84196 8.72064 10 9.10218 10 9.5C10 9.89782 9.84196 10.2794 9.56066 10.5607C9.27936 10.842 8.89782 11 8.5 11C8.10218 11 7.72064 10.842 7.43934 10.5607C7.15804 10.2794 7 9.89782 7 9.5C7 9.10218 7.15804 8.72064 7.43934 8.43934C7.72064 8.15804 8.10218 8 8.5 8ZM23.5 11C23.8978 11 24.2794 11.158 24.5607 11.4393C24.842 11.7206 25 12.1022 25 12.5C25 12.8978 24.842 13.2794 24.5607 13.5607C24.2794 13.842 23.8978 14 23.5 14C23.1022 14 22.7206 13.842 22.4393 13.5607C22.158 13.2794 22 12.8978 22 12.5C22 12.1022 22.158 11.7206 22.4393 11.4393C22.7206 11.158 23.1022 11 23.5 11Z" fill="#8AD5D0"/>
</svg>
