<svg width="48" height="32" viewBox="0 0 48 32" fill="none" xmlns="http://www.w3.org/2000/svg">
<path d="M34 18L24 28L14 18H20V10H28V18H34ZM38.7 12.06C37.34 5.18 31.28 0 24 0C18.22 0 13.2 3.28 10.7 8.06C4.68 8.72 0 13.8 0 20C0 23.1826 1.26428 26.2348 3.51472 28.4853C5.76515 30.7357 8.8174 32 12 32H38C39.3132 32 40.6136 31.7413 41.8268 31.2388C43.0401 30.7362 44.1425 29.9997 45.0711 29.0711C45.9997 28.1425 46.7362 27.0401 47.2388 25.8268C47.7413 24.6136 48 23.3132 48 22C48 16.72 43.9 12.44 38.7 12.06Z" fill="#8AD5D0"/>
</svg>
