<svg width="36" height="36" viewBox="0 0 36 36" fill="none" xmlns="http://www.w3.org/2000/svg">
<path d="M32 0C33.0609 0 34.0783 0.421427 34.8284 1.17157C35.5786 1.92172 36 2.93913 36 4V32C36 34.22 34.2 36 32 36H4C2.93913 36 1.92172 35.5786 1.17157 34.8284C0.421427 34.0783 0 33.0609 0 32V4C0 2.93913 0.421427 1.92172 1.17157 1.17157C1.92172 0.421427 2.93913 0 4 0H32ZM25.16 28L23.26 19.84L29.58 14.38L21.24 13.66L18 6L14.76 13.68L6.42 14.4L12.74 19.86L10.84 28L18 23.68L25.16 28Z" fill="#8AD5D0"/>
</svg>
